<svg width="32" height="33" viewBox="0 0 32 33" fill="none" xmlns="http://www.w3.org/2000/svg">
<g filter="url(#filter0_d_606_385)">
<path d="M10 2.47607L7 6.47607V20.4761C7 21.0065 7.21071 21.5152 7.58579 21.8903C7.96086 22.2654 8.46957 22.4761 9 22.4761H23C23.5304 22.4761 24.0391 22.2654 24.4142 21.8903C24.7893 21.5152 25 21.0065 25 20.4761V6.47607L22 2.47607H10Z" stroke="#1D1D1D" stroke-width="2" stroke-linecap="round" stroke-linejoin="round"/>
<path d="M7 6.47607H25" stroke="#1D1D1D" stroke-width="2" stroke-linecap="round" stroke-linejoin="round"/>
<path d="M20 10.4761C20 11.5369 19.5786 12.5544 18.8284 13.3045C18.0783 14.0546 17.0609 14.4761 16 14.4761C14.9391 14.4761 13.9217 14.0546 13.1716 13.3045C12.4214 12.5544 12 11.5369 12 10.4761" stroke="#1D1D1D" stroke-width="2" stroke-linecap="round" stroke-linejoin="round"/>
</g>
<defs>
<filter id="filter0_d_606_385" x="0" y="0.476074" width="32" height="32" filterUnits="userSpaceOnUse" color-interpolation-filters="sRGB">
<feFlood flood-opacity="0" result="BackgroundImageFix"/>
<feColorMatrix in="SourceAlpha" type="matrix" values="0 0 0 0 0 0 0 0 0 0 0 0 0 0 0 0 0 0 127 0" result="hardAlpha"/>
<feOffset dy="4"/>
<feGaussianBlur stdDeviation="2"/>
<feComposite in2="hardAlpha" operator="out"/>
<feColorMatrix type="matrix" values="0 0 0 0 0 0 0 0 0 0 0 0 0 0 0 0 0 0 0.25 0"/>
<feBlend mode="normal" in2="BackgroundImageFix" result="effect1_dropShadow_606_385"/>
<feBlend mode="normal" in="SourceGraphic" in2="effect1_dropShadow_606_385" result="shape"/>
</filter>
</defs>
</svg>
