<svg width="161" height="45" viewBox="0 0 161 45" fill="none" xmlns="http://www.w3.org/2000/svg">
<g filter="url(#filter0_d_602_513)">
<path d="M25.3209 10.6821V36.4761H23.5749C23.2989 36.4761 23.0649 36.4281 22.8729 36.3321C22.6929 36.2361 22.5129 36.0741 22.3329 35.8461L7.41091 16.4061C7.43491 16.7061 7.45291 17.0001 7.46491 17.2881C7.47691 17.5761 7.48291 17.8461 7.48291 18.0981V36.4761H4.42291V10.6821H6.22291C6.37891 10.6821 6.51091 10.6941 6.61891 10.7181C6.72691 10.7301 6.82291 10.7601 6.90691 10.8081C6.99091 10.8441 7.07491 10.9041 7.15891 10.9881C7.24291 11.0601 7.33291 11.1561 7.42891 11.2761L22.3509 30.6981C22.3269 30.3861 22.3029 30.0861 22.2789 29.7981C22.2669 29.4981 22.2609 29.2161 22.2609 28.9521V10.6821H25.3209ZM38.2826 17.9541C39.6146 17.9541 40.8146 18.1761 41.8826 18.6201C42.9506 19.0641 43.8626 19.6941 44.6186 20.5101C45.3746 21.3261 45.9506 22.3161 46.3466 23.4801C46.7546 24.6321 46.9586 25.9221 46.9586 27.3501C46.9586 28.7901 46.7546 30.0861 46.3466 31.2381C45.9506 32.3901 45.3746 33.3741 44.6186 34.1901C43.8626 35.0061 42.9506 35.6361 41.8826 36.0801C40.8146 36.5121 39.6146 36.7281 38.2826 36.7281C36.9386 36.7281 35.7266 36.5121 34.6466 36.0801C33.5786 35.6361 32.6666 35.0061 31.9106 34.1901C31.1546 33.3741 30.5726 32.3901 30.1646 31.2381C29.7686 30.0861 29.5706 28.7901 29.5706 27.3501C29.5706 25.9221 29.7686 24.6321 30.1646 23.4801C30.5726 22.3161 31.1546 21.3261 31.9106 20.5101C32.6666 19.6941 33.5786 19.0641 34.6466 18.6201C35.7266 18.1761 36.9386 17.9541 38.2826 17.9541ZM38.2826 34.2261C40.0826 34.2261 41.4266 33.6261 42.3146 32.4261C43.2026 31.2141 43.6466 29.5281 43.6466 27.3681C43.6466 25.1961 43.2026 23.5041 42.3146 22.2921C41.4266 21.0801 40.0826 20.4741 38.2826 20.4741C37.3706 20.4741 36.5726 20.6301 35.8886 20.9421C35.2166 21.2541 34.6526 21.7041 34.1966 22.2921C33.7526 22.8801 33.4166 23.6061 33.1886 24.4701C32.9726 25.3221 32.8646 26.2881 32.8646 27.3681C32.8646 29.5281 33.3086 31.2141 34.1966 32.4261C35.0966 33.6261 36.4586 34.2261 38.2826 34.2261ZM54.0644 21.8961C54.6404 20.6481 55.3484 19.6761 56.1884 18.9801C57.0284 18.2721 58.0544 17.9181 59.2664 17.9181C59.6504 17.9181 60.0164 17.9601 60.3644 18.0441C60.7244 18.1281 61.0424 18.2601 61.3184 18.4401L61.0844 20.8341C61.0124 21.1341 60.8324 21.2841 60.5444 21.2841C60.3764 21.2841 60.1304 21.2481 59.8064 21.1761C59.4824 21.1041 59.1164 21.0681 58.7084 21.0681C58.1324 21.0681 57.6164 21.1521 57.1604 21.3201C56.7164 21.4881 56.3144 21.7401 55.9544 22.0761C55.6064 22.4001 55.2884 22.8081 55.0004 23.3001C54.7244 23.7801 54.4724 24.3321 54.2444 24.9561V36.4761H51.0224V18.2421H52.8584C53.2064 18.2421 53.4464 18.3081 53.5784 18.4401C53.7104 18.5721 53.8004 18.8001 53.8484 19.1241L54.0644 21.8961ZM69.7337 36.7641C68.2937 36.7641 67.1837 36.3621 66.4037 35.5581C65.6357 34.7541 65.2517 33.5961 65.2517 32.0841V20.9241H63.0557C62.8637 20.9241 62.7017 20.8701 62.5697 20.7621C62.4377 20.6421 62.3717 20.4621 62.3717 20.2221V18.9441L65.3597 18.5661L66.0977 12.9321C66.1337 12.7521 66.2117 12.6081 66.3317 12.5001C66.4637 12.3801 66.6317 12.3201 66.8357 12.3201H68.4557V18.6021H73.7297V20.9241H68.4557V31.8681C68.4557 32.6361 68.6417 33.2061 69.0137 33.5781C69.3857 33.9501 69.8657 34.1361 70.4537 34.1361C70.7897 34.1361 71.0777 34.0941 71.3177 34.0101C71.5697 33.9141 71.7857 33.8121 71.9657 33.7041C72.1457 33.5961 72.2957 33.5001 72.4157 33.4161C72.5477 33.3201 72.6617 33.2721 72.7577 33.2721C72.9257 33.2721 73.0757 33.3741 73.2077 33.5781L74.1437 35.1081C73.5917 35.6241 72.9257 36.0321 72.1457 36.3321C71.3657 36.6201 70.5617 36.7641 69.7337 36.7641ZM80.26 20.6721C81.04 19.8441 81.904 19.1841 82.852 18.6921C83.8 18.2001 84.892 17.9541 86.128 17.9541C87.124 17.9541 88 18.1221 88.756 18.4581C89.524 18.7821 90.16 19.2501 90.664 19.8621C91.18 20.4621 91.57 21.1881 91.834 22.0401C92.098 22.8921 92.23 23.8341 92.23 24.8661V36.4761H89.008V24.8661C89.008 23.4861 88.69 22.4181 88.054 21.6621C87.43 20.8941 86.476 20.5101 85.192 20.5101C84.244 20.5101 83.356 20.7381 82.528 21.1941C81.712 21.6501 80.956 22.2681 80.26 23.0481V36.4761H77.038V9.96207H80.26V20.6721ZM110.711 14.7141C110.603 14.8941 110.483 15.0321 110.351 15.1281C110.231 15.2121 110.081 15.2541 109.901 15.2541C109.697 15.2541 109.457 15.1521 109.181 14.9481C108.905 14.7441 108.557 14.5221 108.137 14.2821C107.729 14.0301 107.231 13.8021 106.643 13.5981C106.067 13.3941 105.365 13.2921 104.537 13.2921C103.757 13.2921 103.067 13.4001 102.467 13.6161C101.879 13.8201 101.381 14.1021 100.973 14.4621C100.577 14.8221 100.277 15.2481 100.073 15.7401C99.8687 16.2201 99.7667 16.7421 99.7667 17.3061C99.7667 18.0261 99.9407 18.6261 100.289 19.1061C100.649 19.5741 101.117 19.9761 101.693 20.3121C102.281 20.6481 102.941 20.9421 103.673 21.1941C104.417 21.4341 105.173 21.6861 105.941 21.9501C106.721 22.2141 107.477 22.5141 108.209 22.8501C108.953 23.1741 109.613 23.5881 110.189 24.0921C110.777 24.5961 111.245 25.2141 111.593 25.9461C111.953 26.6781 112.133 27.5781 112.133 28.6461C112.133 29.7741 111.941 30.8361 111.557 31.8321C111.173 32.8161 110.609 33.6741 109.865 34.4061C109.133 35.1381 108.227 35.7141 107.147 36.1341C106.079 36.5541 104.861 36.7641 103.493 36.7641C101.813 36.7641 100.289 36.4641 98.9207 35.8641C97.5527 35.2521 96.3827 34.4301 95.4107 33.3981L96.4187 31.7421C96.5147 31.6101 96.6287 31.5021 96.7607 31.4181C96.9047 31.3221 97.0607 31.2741 97.2287 31.2741C97.3847 31.2741 97.5587 31.3401 97.7507 31.4721C97.9547 31.5921 98.1827 31.7481 98.4347 31.9401C98.6867 32.1321 98.9747 32.3421 99.2987 32.5701C99.6227 32.7981 99.9887 33.0081 100.397 33.2001C100.817 33.3921 101.291 33.5541 101.819 33.6861C102.347 33.8061 102.941 33.8661 103.601 33.8661C104.429 33.8661 105.167 33.7521 105.815 33.5241C106.463 33.2961 107.009 32.9781 107.453 32.5701C107.909 32.1501 108.257 31.6521 108.497 31.0761C108.737 30.5001 108.857 29.8581 108.857 29.1501C108.857 28.3701 108.677 27.7341 108.317 27.2421C107.969 26.7381 107.507 26.3181 106.931 25.9821C106.355 25.6461 105.695 25.3641 104.951 25.1361C104.207 24.8961 103.451 24.6561 102.683 24.4161C101.915 24.1641 101.159 23.8761 100.415 23.5521C99.6707 23.2281 99.0107 22.8081 98.4347 22.2921C97.8587 21.7761 97.3907 21.1341 97.0307 20.3661C96.6827 19.5861 96.5087 18.6261 96.5087 17.4861C96.5087 16.5741 96.6827 15.6921 97.0307 14.8401C97.3907 13.9881 97.9067 13.2321 98.5787 12.5721C99.2627 11.9121 100.097 11.3841 101.081 10.9881C102.077 10.5921 103.217 10.3941 104.501 10.3941C105.941 10.3941 107.249 10.6221 108.425 11.0781C109.613 11.5341 110.657 12.1941 111.557 13.0581L110.711 14.7141ZM121.097 36.7641C119.657 36.7641 118.547 36.3621 117.767 35.5581C116.999 34.7541 116.615 33.5961 116.615 32.0841V20.9241H114.419C114.227 20.9241 114.065 20.8701 113.933 20.7621C113.801 20.6421 113.735 20.4621 113.735 20.2221V18.9441L116.723 18.5661L117.461 12.9321C117.497 12.7521 117.575 12.6081 117.695 12.5001C117.827 12.3801 117.995 12.3201 118.199 12.3201H119.819V18.6021H125.093V20.9241H119.819V31.8681C119.819 32.6361 120.005 33.2061 120.377 33.5781C120.749 33.9501 121.229 34.1361 121.817 34.1361C122.153 34.1361 122.441 34.0941 122.681 34.0101C122.933 33.9141 123.149 33.8121 123.329 33.7041C123.509 33.5961 123.659 33.5001 123.779 33.4161C123.911 33.3201 124.025 33.2721 124.121 33.2721C124.289 33.2721 124.439 33.3741 124.571 33.5781L125.507 35.1081C124.955 35.6241 124.289 36.0321 123.509 36.3321C122.729 36.6201 121.925 36.7641 121.097 36.7641ZM138.283 28.2681C136.807 28.3161 135.547 28.4361 134.503 28.6281C133.471 28.8081 132.625 29.0481 131.965 29.3481C131.317 29.6481 130.843 30.0021 130.543 30.4101C130.255 30.8181 130.111 31.2741 130.111 31.7781C130.111 32.2581 130.189 32.6721 130.345 33.0201C130.501 33.3681 130.711 33.6561 130.975 33.8841C131.251 34.1001 131.569 34.2621 131.929 34.3701C132.301 34.4661 132.697 34.5141 133.117 34.5141C133.681 34.5141 134.197 34.4601 134.665 34.3521C135.133 34.2321 135.571 34.0641 135.979 33.8481C136.399 33.6321 136.795 33.3741 137.167 33.0741C137.551 32.7741 137.923 32.4321 138.283 32.0481V28.2681ZM127.933 20.8161C128.941 19.8441 130.027 19.1181 131.191 18.6381C132.355 18.1581 133.645 17.9181 135.061 17.9181C136.081 17.9181 136.987 18.0861 137.779 18.4221C138.571 18.7581 139.237 19.2261 139.777 19.8261C140.317 20.4261 140.725 21.1521 141.001 22.0041C141.277 22.8561 141.415 23.7921 141.415 24.8121V36.4761H139.993C139.681 36.4761 139.441 36.4281 139.273 36.3321C139.105 36.2241 138.973 36.0201 138.877 35.7201L138.517 33.9921C138.037 34.4361 137.569 34.8321 137.113 35.1801C136.657 35.5161 136.177 35.8041 135.673 36.0441C135.169 36.2721 134.629 36.4461 134.053 36.5661C133.489 36.6981 132.859 36.7641 132.163 36.7641C131.455 36.7641 130.789 36.6681 130.165 36.4761C129.541 36.2721 128.995 35.9721 128.527 35.5761C128.071 35.1801 127.705 34.6821 127.429 34.0821C127.165 33.4701 127.033 32.7501 127.033 31.9221C127.033 31.2021 127.231 30.5121 127.627 29.8521C128.023 29.1801 128.665 28.5861 129.553 28.0701C130.441 27.5541 131.599 27.1341 133.027 26.8101C134.455 26.4741 136.207 26.2821 138.283 26.2341V24.8121C138.283 23.3961 137.977 22.3281 137.365 21.6081C136.753 20.8761 135.859 20.5101 134.683 20.5101C133.891 20.5101 133.225 20.6121 132.685 20.8161C132.157 21.0081 131.695 21.2301 131.299 21.4821C130.915 21.7221 130.579 21.9441 130.291 22.1481C130.015 22.3401 129.739 22.4361 129.463 22.4361C129.247 22.4361 129.061 22.3821 128.905 22.2741C128.749 22.1541 128.617 22.0101 128.509 21.8421L127.933 20.8161ZM149.338 21.8961C149.914 20.6481 150.622 19.6761 151.462 18.9801C152.302 18.2721 153.328 17.9181 154.54 17.9181C154.924 17.9181 155.29 17.9601 155.638 18.0441C155.998 18.1281 156.316 18.2601 156.592 18.4401L156.358 20.8341C156.286 21.1341 156.106 21.2841 155.818 21.2841C155.65 21.2841 155.404 21.2481 155.08 21.1761C154.756 21.1041 154.39 21.0681 153.982 21.0681C153.406 21.0681 152.89 21.1521 152.434 21.3201C151.99 21.4881 151.588 21.7401 151.228 22.0761C150.88 22.4001 150.562 22.8081 150.274 23.3001C149.998 23.7801 149.746 24.3321 149.518 24.9561V36.4761H146.296V18.2421H148.132C148.48 18.2421 148.72 18.3081 148.852 18.4401C148.984 18.5721 149.074 18.8001 149.122 19.1241L149.338 21.8961Z" fill="#1D1D1D"/>
</g>
<defs>
<filter id="filter0_d_602_513" x="0.422852" y="9.96216" width="160.169" height="34.802" filterUnits="userSpaceOnUse" color-interpolation-filters="sRGB">
<feFlood flood-opacity="0" result="BackgroundImageFix"/>
<feColorMatrix in="SourceAlpha" type="matrix" values="0 0 0 0 0 0 0 0 0 0 0 0 0 0 0 0 0 0 127 0" result="hardAlpha"/>
<feOffset dy="4"/>
<feGaussianBlur stdDeviation="2"/>
<feComposite in2="hardAlpha" operator="out"/>
<feColorMatrix type="matrix" values="0 0 0 0 0 0 0 0 0 0 0 0 0 0 0 0 0 0 0.25 0"/>
<feBlend mode="normal" in2="BackgroundImageFix" result="effect1_dropShadow_602_513"/>
<feBlend mode="normal" in="SourceGraphic" in2="effect1_dropShadow_602_513" result="shape"/>
</filter>
</defs>
</svg>
