<svg width="24" height="24" viewBox="0 0 24 24" fill="none" xmlns="http://www.w3.org/2000/svg">
<path d="M12 0.375C5.57812 0.375 0.375 5.625 0.375 12C0.375 18.4219 5.57812 23.625 12 23.625C18.375 23.625 23.625 18.4219 23.625 12C23.625 5.625 18.375 0.375 12 0.375ZM20.1094 6L17.1562 8.95312C16.6406 8.10938 15.8906 7.35938 15.0469 6.84375L18 3.89062C18.7969 4.5 19.5 5.20312 20.1094 6ZM12 16.5C9.46875 16.5 7.5 14.5312 7.5 12C7.5 9.51562 9.46875 7.5 12 7.5C14.4844 7.5 16.5 9.51562 16.5 12C16.5 14.5312 14.4844 16.5 12 16.5ZM5.95312 3.89062L8.90625 6.84375C8.0625 7.35938 7.3125 8.10938 6.79688 8.95312L3.84375 6C4.45312 5.20312 5.15625 4.5 5.95312 3.89062ZM3.84375 18.0469L6.79688 15.0938C7.3125 15.9375 8.0625 16.6875 8.90625 17.2031L5.95312 20.1562C5.15625 19.5469 4.45312 18.8438 3.84375 18.0469ZM18 20.1562L15.0469 17.2031C15.8906 16.6875 16.6406 15.9375 17.1562 15.0938L20.1094 18.0469C19.5 18.8438 18.7969 19.5469 18 20.1562Z" fill="#024E82"/>
</svg>
