<svg width="25" height="24" viewBox="0 0 25 24" fill="none" xmlns="http://www.w3.org/2000/svg">
<path d="M13 11.5312C12.3438 11.5312 11.875 12.0469 11.875 12.6562C11.9219 16.0781 11.4531 19.3125 10.5625 22.5938C10.4219 23.0625 10.6562 24 11.6406 24C12.1562 24 12.5781 23.7188 12.7188 23.2031C13.375 20.9531 14.1719 17.3438 14.125 12.6562C14.125 12.0469 13.6094 11.5312 13 11.5312ZM12.9531 7.73438C10.0938 7.73438 8.07812 9.9375 8.125 12.4688C8.125 14.7188 7.9375 16.9688 7.46875 19.125C7.375 19.7344 7.75 20.3438 8.35938 20.4844C8.96875 20.5781 9.57812 20.2031 9.67188 19.5938C10.1875 17.25 10.375 14.8594 10.375 12.4219C10.3281 11.2031 11.3125 9.98438 12.9062 9.98438C14.3594 9.98438 15.5781 11.1562 15.625 12.5625C15.625 14.8125 15.4844 17.1094 15.1094 19.3125C15.0156 19.9219 15.4375 20.4844 16.0469 20.5781C16.9844 20.7656 17.3125 19.875 17.3125 19.6875C17.7344 17.3438 17.875 14.9062 17.875 12.5156C17.8281 9.9375 15.625 7.78125 12.9531 7.73438ZM7.75 6.79688C7.28125 6.42188 6.57812 6.46875 6.15625 6.9375C4.98438 8.4375 4.32812 10.3125 4.375 12.1875C4.375 13.9688 4.23438 15.75 3.90625 17.4375C3.8125 18.0938 4.23438 18.6562 4.84375 18.75C5.78125 18.9375 6.10938 18.0938 6.15625 17.8594C6.48438 15.9844 6.625 14.0625 6.625 12.1875C6.57812 10.7812 7.04688 9.46875 7.9375 8.39062C8.3125 7.875 8.21875 7.17188 7.75 6.79688ZM12.9062 3.89062C12.1562 3.84375 11.4531 3.9375 10.75 4.125C10.1406 4.26562 9.76562 4.875 9.90625 5.4375C10.0469 6.04688 10.6562 6.42188 11.2656 6.28125C11.7812 6.1875 12.2969 6.14062 12.8594 6.14062C16.375 6.1875 19.3281 9 19.375 12.4219C19.375 14.2031 19.2812 15.9844 19.0938 17.7656C19.0469 18.375 19.4688 18.9375 20.0781 18.9844C20.875 19.0781 21.2969 18.4688 21.3438 18C21.5312 16.3594 21.625 14.7188 21.625 13.0312C21.625 12.7969 21.625 12.6094 21.625 12.375C21.5312 7.78125 17.6406 3.9375 12.9062 3.89062ZM24.7188 9.5625C24.5781 8.95312 23.9688 8.57812 23.3594 8.71875C22.75 8.85938 22.375 9.42188 22.5156 10.0312C22.7031 11.0625 22.75 11.8125 22.7031 12.9375C22.7031 13.5469 23.2188 14.0625 23.8281 14.0625C24.4844 14.0625 24.9531 13.5938 24.9531 12.9375C25 11.9062 25 10.875 24.7188 9.5625ZM22.7969 5.29688C20.5469 2.0625 16.7969 0.09375 12.8125 0.046875C9.57812 0 6.53125 1.17188 4.28125 3.42188C2.125 5.625 0.953125 8.53125 1 11.5781V12.6094C0.953125 13.2188 1.46875 13.7344 2.07812 13.7344C2.07812 13.7344 2.07812 13.7344 2.125 13.7344C2.6875 13.7344 3.20312 13.2656 3.20312 12.6562L3.25 11.5312C3.20312 9.09375 4.14062 6.79688 5.875 5.01562C7.70312 3.23438 10.1406 2.25 12.8125 2.29688C16.0469 2.34375 19.0938 3.9375 20.9688 6.60938C21.3438 7.125 22.0469 7.21875 22.5625 6.89062C23.0312 6.51562 23.1719 5.8125 22.7969 5.29688Z" fill="#024E82"/>
</svg>
