<svg width="30" height="24" viewBox="0 0 30 24" fill="none" xmlns="http://www.w3.org/2000/svg">
<path d="M29.25 16.5H28.5V11.4375C28.5 10.875 28.2188 10.2656 27.7969 9.84375L23.1562 5.20312C22.7344 4.78125 22.125 4.5 21.5625 4.5H19.5V2.25C19.5 1.03125 18.4688 0 17.25 0H5.25C3.98438 0 3 1.03125 3 2.25V4.5H0.375C0.140625 4.5 0 4.6875 0 4.875V5.625C0 5.85938 0.140625 6 0.375 6H13.125C13.3125 6 13.5 6.1875 13.5 6.375V7.125C13.5 7.35938 13.3125 7.5 13.125 7.5H1.875C1.64062 7.5 1.5 7.6875 1.5 7.875V8.625C1.5 8.85938 1.64062 9 1.875 9H11.625C11.8125 9 12 9.1875 12 9.375V10.125C12 10.3594 11.8125 10.5 11.625 10.5H0.375C0.140625 10.5 0 10.6875 0 10.875V11.625C0 11.8594 0.140625 12 0.375 12H10.125C10.3125 12 10.5 12.1875 10.5 12.375V13.125C10.5 13.3594 10.3125 13.5 10.125 13.5H3V19.5C3 21.9844 5.01562 24 7.5 24C9.98438 24 12 21.9844 12 19.5H18C18 21.9844 20.0156 24 22.5 24C24.9844 24 27 21.9844 27 19.5H29.25C29.625 19.5 30 19.1719 30 18.75V17.25C30 16.875 29.625 16.5 29.25 16.5ZM7.5 21.75C6.23438 21.75 5.25 20.7656 5.25 19.5C5.25 18.2812 6.23438 17.25 7.5 17.25C8.71875 17.25 9.75 18.2812 9.75 19.5C9.75 20.7656 8.71875 21.75 7.5 21.75ZM22.5 21.75C21.2344 21.75 20.25 20.7656 20.25 19.5C20.25 18.2812 21.2344 17.25 22.5 17.25C23.7188 17.25 24.75 18.2812 24.75 19.5C24.75 20.7656 23.7188 21.75 22.5 21.75ZM26.25 12H19.5V6.75H21.5625L26.25 11.4375V12Z" fill="#024E82"/>
</svg>
