<svg width="24" height="24" viewBox="0 0 24 24" fill="none" xmlns="http://www.w3.org/2000/svg">
<path d="M9.9375 10.5469C10.2188 10.5469 10.5 10.2656 10.5 9.98438V7.73438C10.5 7.40625 10.2188 7.17188 9.9375 7.17188H5.34375C6.84375 5.10938 9.23438 3.75 12 3.75C16.5469 3.75 20.25 7.45312 20.25 12C20.25 16.5938 16.5469 20.25 12 20.25C9.89062 20.25 7.96875 19.5 6.51562 18.1875C6.28125 18 5.95312 18 5.76562 18.2344L4.17188 19.8281C3.9375 20.0625 3.9375 20.4375 4.17188 20.625C6.23438 22.5 9 23.625 12 23.625C18.4219 23.625 23.625 18.4688 23.625 12.0469C23.625 5.625 18.5156 0.46875 12.0938 0.421875C8.625 0.375 5.48438 1.875 3.375 4.26562V0.5625C3.375 0.28125 3.09375 0 2.8125 0H0.5625C0.234375 0 0 0.28125 0 0.5625V9.98438C0 10.2656 0.234375 10.5469 0.5625 10.5469H9.9375Z" fill="#024E82"/>
</svg>
